<svg version="1.1" viewBox="0 0 1000 1000" xmlns="http://www.w3.org/2000/svg">
	<circle id="sun" cx="500" cy="500" r="300" fill="#ffc800" stroke-width=".73684"/>
	<g id="rain">
		<g transform="matrix(.22975 0 0 .23637 90.686 460)">
			<path d="m106.09 49.821c18.531 0.098898 79.964 107.83 70.613 123.83-9.351 15.999-133.36 15.337-142.54-0.76076-9.1797-16.098 53.4-123.17 71.931-123.07zm75.911 135.36a76.17 76.17 0 0 1-76.17 76.17 76.17 76.17 0 0 1-76.17-76.17 76.17 76.17 0 0 1 76.17-76.17 76.17 76.17 0 0 1 76.17 76.17" fill="#0ff" stroke-width=".3278"/>
		</g>
		<g transform="matrix(.22779 0 0 .23492 145.89 460)">
			<path d="m106.09 49.821c18.531 0.098898 79.964 107.83 70.613 123.83-9.351 15.999-133.36 15.337-142.54-0.76076-9.1797-16.098 53.4-123.17 71.931-123.07zm75.911 135.36a76.17 76.17 0 0 1-76.17 76.17 76.17 76.17 0 0 1-76.17-76.17 76.17 76.17 0 0 1 76.17-76.17 76.17 76.17 0 0 1 76.17 76.17" fill="#0ff" stroke-width=".3278"/>
		</g>
		<g transform="matrix(.22779 0 0 .23492 200.89 460)">
			<path d="m106.09 49.821c18.531 0.098898 79.964 107.83 70.613 123.83-9.351 15.999-133.36 15.337-142.54-0.76076-9.1797-16.098 53.4-123.17 71.931-123.07zm75.911 135.36a76.17 76.17 0 0 1-76.17 76.17 76.17 76.17 0 0 1-76.17-76.17 76.17 76.17 0 0 1 76.17-76.17 76.17 76.17 0 0 1 76.17 76.17" fill="#0ff" stroke-width=".3278"/>
		</g>
		<g transform="matrix(.22779 0 0 .23492 255.89 460)">
			<path d="m106.09 49.821c18.531 0.098898 79.964 107.83 70.613 123.83-9.351 15.999-133.36 15.337-142.54-0.76076-9.1797-16.098 53.4-123.17 71.931-123.07zm75.911 135.36a76.17 76.17 0 0 1-76.17 76.17 76.17 76.17 0 0 1-76.17-76.17 76.17 76.17 0 0 1 76.17-76.17 76.17 76.17 0 0 1 76.17 76.17" fill="#0ff" stroke-width=".3278"/>
		</g>
		<g transform="matrix(.22779 0 0 .23492 310.89 460)">
			<path d="m106.09 49.821c18.531 0.098898 79.964 107.83 70.613 123.83-9.351 15.999-133.36 15.337-142.54-0.76076-9.1797-16.098 53.4-123.17 71.931-123.07zm75.911 135.36a76.17 76.17 0 0 1-76.17 76.17 76.17 76.17 0 0 1-76.17-76.17 76.17 76.17 0 0 1 76.17-76.17 76.17 76.17 0 0 1 76.17 76.17" fill="#0ff" stroke-width=".3278"/>
		</g>
		<g transform="matrix(.22779 0 0 .23492 365.89 460)">
			<path d="m106.09 49.821c18.531 0.098898 79.964 107.83 70.613 123.83-9.351 15.999-133.36 15.337-142.54-0.76076-9.1797-16.098 53.4-123.17 71.931-123.07zm75.911 135.36a76.17 76.17 0 0 1-76.17 76.17 76.17 76.17 0 0 1-76.17-76.17 76.17 76.17 0 0 1 76.17-76.17 76.17 76.17 0 0 1 76.17 76.17" fill="#0ff" stroke-width=".3278"/>
		</g>
		<g transform="matrix(.22779 0 0 .23492 420.89 460)">
			<path d="m106.09 49.821c18.531 0.098898 79.964 107.83 70.613 123.83-9.351 15.999-133.36 15.337-142.54-0.76076-9.1797-16.098 53.4-123.17 71.931-123.07zm75.911 135.36a76.17 76.17 0 0 1-76.17 76.17 76.17 76.17 0 0 1-76.17-76.17 76.17 76.17 0 0 1 76.17-76.17 76.17 76.17 0 0 1 76.17 76.17" fill="#0ff" stroke-width=".3278"/>
		</g>
		<g transform="matrix(.22779 0 0 .23492 475.89 460)">
			<path d="m106.09 49.821c18.531 0.098898 79.964 107.83 70.613 123.83-9.351 15.999-133.36 15.337-142.54-0.76076-9.1797-16.098 53.4-123.17 71.931-123.07zm75.911 135.36a76.17 76.17 0 0 1-76.17 76.17 76.17 76.17 0 0 1-76.17-76.17 76.17 76.17 0 0 1 76.17-76.17 76.17 76.17 0 0 1 76.17 76.17" fill="#0ff" stroke-width=".3278"/>
		</g>
		<g transform="matrix(.22975 0 0 .23637 530.69 460)">
			<path d="m106.09 49.821c18.531 0.098898 79.964 107.83 70.613 123.83-9.351 15.999-133.36 15.337-142.54-0.76076-9.1797-16.098 53.4-123.17 71.931-123.07zm75.911 135.36a76.17 76.17 0 0 1-76.17 76.17 76.17 76.17 0 0 1-76.17-76.17 76.17 76.17 0 0 1 76.17-76.17 76.17 76.17 0 0 1 76.17 76.17" fill="#0ff" stroke-width=".3278"/>
		</g>
		<g transform="matrix(.22779 0 0 .23492 585.89 460)">
			<path d="m106.09 49.821c18.531 0.098898 79.964 107.83 70.613 123.83-9.351 15.999-133.36 15.337-142.54-0.76076-9.1797-16.098 53.4-123.17 71.931-123.07zm75.911 135.36a76.17 76.17 0 0 1-76.17 76.17 76.17 76.17 0 0 1-76.17-76.17 76.17 76.17 0 0 1 76.17-76.17 76.17 76.17 0 0 1 76.17 76.17" fill="#0ff" stroke-width=".3278"/>
		</g>
		<g transform="matrix(.22779 0 0 .23492 640.89 460)">
			<path d="m106.09 49.821c18.531 0.098898 79.964 107.83 70.613 123.83-9.351 15.999-133.36 15.337-142.54-0.76076-9.1797-16.098 53.4-123.17 71.931-123.07zm75.911 135.36a76.17 76.17 0 0 1-76.17 76.17 76.17 76.17 0 0 1-76.17-76.17 76.17 76.17 0 0 1 76.17-76.17 76.17 76.17 0 0 1 76.17 76.17" fill="#0ff" stroke-width=".3278"/>
		</g>
		<g transform="matrix(.22779 0 0 .23492 695.89 460)">
			<path d="m106.09 49.821c18.531 0.098898 79.964 107.83 70.613 123.83-9.351 15.999-133.36 15.337-142.54-0.76076-9.1797-16.098 53.4-123.17 71.931-123.07zm75.911 135.36a76.17 76.17 0 0 1-76.17 76.17 76.17 76.17 0 0 1-76.17-76.17 76.17 76.17 0 0 1 76.17-76.17 76.17 76.17 0 0 1 76.17 76.17" fill="#0ff" stroke-width=".3278"/>
		</g>
		<g transform="matrix(.22779 0 0 .23492 750.89 460)">
			<path d="m106.09 49.821c18.531 0.098898 79.964 107.83 70.613 123.83-9.351 15.999-133.36 15.337-142.54-0.76076-9.1797-16.098 53.4-123.17 71.931-123.07zm75.911 135.36a76.17 76.17 0 0 1-76.17 76.17 76.17 76.17 0 0 1-76.17-76.17 76.17 76.17 0 0 1 76.17-76.17 76.17 76.17 0 0 1 76.17 76.17" fill="#0ff" stroke-width=".3278"/>
		</g>
		<g transform="matrix(.22779 0 0 .23492 805.89 460)">
			<path d="m106.09 49.821c18.531 0.098898 79.964 107.83 70.613 123.83-9.351 15.999-133.36 15.337-142.54-0.76076-9.1797-16.098 53.4-123.17 71.931-123.07zm75.911 135.36a76.17 76.17 0 0 1-76.17 76.17 76.17 76.17 0 0 1-76.17-76.17 76.17 76.17 0 0 1 76.17-76.17 76.17 76.17 0 0 1 76.17 76.17" fill="#0ff" stroke-width=".3278"/>
		</g>
		<g transform="matrix(.22779 0 0 .23492 860.89 460)">
			<path d="m106.09 49.821c18.531 0.098898 79.964 107.83 70.613 123.83-9.351 15.999-133.36 15.337-142.54-0.76076-9.1797-16.098 53.4-123.17 71.931-123.07zm75.911 135.36a76.17 76.17 0 0 1-76.17 76.17 76.17 76.17 0 0 1-76.17-76.17 76.17 76.17 0 0 1 76.17-76.17 76.17 76.17 0 0 1 76.17 76.17" fill="#0ff" stroke-width=".3278"/>
		</g>
	</g>
	<path id="cloud" d="m571.48 87.794a155.92 144.58 0 0 1 144.77 91.513 134.66 144.58 0 0 1 60.496-15.413 134.66 144.58 0 0 1 134.66 144.58 134.66 144.58 0 0 1-7e-3 1.9039 108.08 116.05 0 0 1 88.602 114.15 108.08 116.05 0 0 1-106.31 116.03v0.014h-775.24a111.62 119.85 0 0 1-6.8165 0.22347 111.62 119.85 0 0 1-6.7633-0.22345h-3.1594v-0.25512a111.62 119.85 0 0 1-101.71-119.37 111.62 119.85 0 0 1 111.07-119.85 134.66 133.17 0 0 1 123.52-80.131 134.66 133.17 0 0 1 43.545 7.1576 104.54 112.24 0 0 1 99.968-79.45 104.54 112.24 0 0 1 54.935 16.75 155.92 144.58 0 0 1 138.19-77.629 155.92 144.58 0 0 1 0.25736 0z" fill="#fff" stroke-width="1.0231"/>
</svg>
