<svg version="1.1" viewBox="0 0 1000 1000" xmlns="http://www.w3.org/2000/svg">
	<defs>
		<filter id="filter926" x="-.0012" y="-.0012" width="1" height="1" style="color-interpolation-filters:sRGB">
			<feGaussianBlur stdDeviation="0.325"/>
		</filter>
	</defs>
	<circle id="sun" cx="500" cy="500" r="300" style="fill:#ffc800;stroke-width:0"/>
	<g id="sunrays2" style="filter:url(#filter926)">
		<path id="sunray8" d="m178 178c13.7-13.7 103 21 112 43.3 0.0309 0.0796 0.0524 0.164 0.0816 0.244a303 300 45 0 0-37 31.4 303 300 45 0 0-31.4 37c-0.0804-0.0293-0.165-0.0509-0.244-0.0816-22.4-8.66-57-98.1-43.3-112z" style="fill:#ffc800;stroke-width:0"/>
		<path id="sunray6" d="m178 822c13.7 13.7 103-21 112-43.3 0.0309-0.0796 0.0524-0.164 0.0816-0.244a300 303 45 0 1-37-31.4 300 303 45 0 1-31.4-37c-0.0804 0.0293-0.165 0.0509-0.244 0.0816-22.4 8.66-57 98.1-43.3 112z" style="fill:#ffc800;stroke-width:0"/>
		<path id="sunray4" d="m822 822c-13.7 13.7-103-21-112-43.3-0.0309-0.0796-0.0524-0.164-0.0816-0.244a303 300 45 0 0 37-31.4 303 300 45 0 0 31.4-37c0.0804 0.0293 0.165 0.0509 0.244 0.0816 22.4 8.66 57 98.1 43.3 112z" style="fill:#ffc800;stroke-width:0"/>
		<path id="sunray2" d="m822 178c-13.7-13.7-103 21-112 43.3-0.0309 0.0796-0.0524 0.164-0.0816 0.244a300 303 45 0 1 37 31.4 300 303 45 0 1 31.4 37c0.0804-0.0293 0.165-0.0509 0.244-0.0816 22.4-8.66 57-98.1 43.3-112z" style="fill:#ffc800;stroke-width:0"/>
	</g>
	<g id="sunrays1">
		<path id="sunray7" d="m45 500c0-19.4 87.8-58.2 110-48.5 0.0782 0.0345 0.153 0.079 0.231 0.115a303 300 0 0 0-3.96 48.4 303 300 0 0 0 3.96 48.4c-0.0776 0.0362-0.153 0.0807-0.231 0.115-22 9.69-110-29.1-110-48.5z" style="fill:#ffc800;stroke-width:0"/>
		<path id="sunray5" d="m500 955c-19.4 0-58.2-87.8-48.5-110 0.0345-0.0782 0.079-0.153 0.115-0.231a300 303 0 0 0 48.4 3.96 300 303 0 0 0 48.4-3.96c0.0362 0.0776 0.0807 0.153 0.115 0.231 9.69 22-29.1 110-48.5 110z" style="fill:#ffc800;stroke-width:0"/>
		<path id="sunray3" d="m955 500c0-19.4-87.8-58.2-110-48.5-0.0782 0.0345-0.153 0.079-0.231 0.115a303 300 0 0 1 3.96 48.4 303 300 0 0 1-3.96 48.4c0.0776 0.0362 0.153 0.0807 0.231 0.115 22 9.69 110-29.1 110-48.5z" style="fill:#ffc800;stroke-width:0"/>
		<path id="sunray1" d="m500 45c-19.4 0-58.2 87.8-48.5 110 0.0345 0.0782 0.079 0.153 0.115 0.231a300 303 0 0 1 48.4-3.96 300 303 0 0 1 48.4 3.96c0.0362-0.0776 0.0807-0.153 0.115-0.231 9.69-22-29.1-110-48.5-110z" style="fill:#ffc800;stroke-width:0"/>
	</g>
</svg>
